<?xml version="1.0" standalone="no"?>
<!DOCTYPE svg PUBLIC "-//W3C//DTD SVG 20010904//EN"
 "http://www.w3.org/TR/2001/REC-SVG-20010904/DTD/svg10.dtd">
<svg version="1.0" xmlns="http://www.w3.org/2000/svg"
 width="700.000000pt" height="700.000000pt" viewBox="0 0 700.000000 700.000000"
 preserveAspectRatio="xMidYMid meet">
<metadata>
Created by potrace 1.14, written by Peter Selinger 2001-2017
</metadata>
<g transform="translate(0.000000,700.000000) scale(0.100000,-0.100000)"
fill="#000000" stroke="none">
<path d="M4408 6995 c-2 -2 -28 -6 -58 -9 -139 -15 -357 -69 -465 -115 -11 -5
-60 -25 -110 -46 -349 -144 -878 -499 -1225 -822 -25 -23 -56 -51 -70 -63 -51
-43 -269 -262 -401 -401 -150 -159 -160 -169 -239 -259 -30 -35 -59 -68 -65
-74 -331 -371 -729 -931 -1027 -1446 -394 -683 -667 -1388 -723 -1869 -4 -30
-9 -63 -12 -75 -3 -12 -6 -111 -8 -221 -3 -239 10 -370 56 -550 97 -384 332
-651 686 -778 79 -29 167 -52 227 -61 21 -4 41 -8 45 -10 45 -28 552 -28 706
-1 136 24 284 61 385 96 124 42 150 53 266 108 123 59 290 155 379 218 350
246 603 439 870 662 50 42 92 78 95 81 3 3 37 32 75 65 39 33 77 67 85 75 8 8
38 35 65 59 28 24 75 67 105 95 86 80 303 280 316 291 94 84 1340 1320 1564
1552 331 343 455 480 561 619 29 38 56 71 60 74 18 13 132 201 149 248 56 148
-41 219 -229 166 -91 -26 -147 -71 -305 -245 -27 -30 -88 -97 -136 -149 -48
-52 -103 -112 -121 -133 -19 -21 -50 -56 -69 -76 -19 -21 -73 -80 -120 -132
-231 -255 -414 -434 -869 -854 -36 -33 -72 -67 -81 -75 -9 -8 -54 -49 -100
-90 -121 -107 -161 -143 -179 -160 -9 -9 -50 -45 -91 -80 -41 -36 -77 -67 -80
-70 -3 -3 -86 -75 -185 -159 -99 -85 -193 -166 -210 -180 -16 -15 -95 -81
-175 -146 -80 -66 -147 -122 -150 -125 -39 -41 -432 -341 -675 -515 -244 -174
-711 -483 -785 -518 -8 -4 -46 -26 -85 -48 -324 -185 -652 -292 -867 -283
-204 9 -331 114 -388 319 -26 95 -33 273 -17 420 17 152 91 423 163 598 56
136 253 533 333 671 28 49 51 92 52 95 0 3 17 30 37 60 35 52 40 55 99 67 131
26 364 111 574 207 113 52 528 258 655 326 187 98 531 293 619 350 22 14 49
30 60 37 19 10 371 231 509 319 110 71 380 249 396 262 8 7 73 56 144 108 70
53 133 100 140 106 6 5 49 39 96 76 212 167 376 321 485 458 121 152 172 316
162 520 -9 183 -31 251 -157 501 -97 190 -124 257 -155 389 -9 39 -32 108 -50
155 -18 47 -36 96 -40 110 -30 104 -143 234 -226 260 -37 12 -261 24 -271 15z
m226 -916 c19 -9 28 -24 36 -63 29 -144 -35 -326 -186 -526 -130 -171 -415
-459 -668 -675 -33 -27 -64 -55 -70 -60 -9 -8 -119 -95 -271 -213 -104 -80
-433 -317 -575 -413 -52 -35 -97 -66 -100 -69 -3 -3 -36 -26 -75 -51 -38 -26
-218 -144 -400 -264 -418 -276 -524 -345 -530 -345 -16 0 413 584 625 850 156
196 426 513 515 606 5 6 42 46 80 89 480 539 924 925 1219 1060 154 71 334
104 400 74z"/>
</g>
</svg>
