<svg width="147" height="35" viewBox="0 0 147 35" fill="none" xmlns="http://www.w3.org/2000/svg">
<path d="M74.6667 15.412V7.8494H75.8253V11.1562H79.019V7.8494H80.1835V15.412H79.019V12.0286H75.8253V15.412H74.6667Z" fill="#24201E"/>
<path d="M82.0715 15.412V14.5396H84.1007V8.72179H82.0715V7.8494H87.2943V8.72179H85.2652V14.5396H87.2943V15.412H82.0715Z" fill="#24201E"/>
<path d="M94.858 8.00855V9.07545C94.0816 8.71786 93.3563 8.53906 92.6818 8.53906C91.9016 8.53906 91.2585 8.82592 90.7527 9.39965C90.2508 9.97338 89.9999 10.7043 89.9999 11.5924C89.9999 12.4844 90.2841 13.2173 90.8527 13.791C91.4212 14.3608 92.1466 14.6457 93.0288 14.6457C93.2288 14.6457 93.4837 14.6222 93.7935 14.575V12.5768H92.376V11.7044H94.9521V15.2175C94.164 15.469 93.417 15.5948 92.7112 15.5948C91.5428 15.5948 90.5919 15.2313 89.8587 14.5043C89.1294 13.7773 88.7647 12.8322 88.7647 11.669C88.7647 10.4783 89.1294 9.51361 89.8587 8.77484C90.588 8.03606 91.5408 7.66667 92.7171 7.66667C93.3837 7.66667 94.0973 7.78063 94.858 8.00855Z" fill="#24201E"/>
<path d="M96.4401 15.412V7.8494H97.5988V11.1562H100.792V7.8494H101.957V15.412H100.792V12.0286H97.5988V15.412H96.4401Z" fill="#24201E"/>
<path d="M104.063 12.2113V11.3389H108.85V12.2113H104.063Z" fill="#24201E"/>
<path d="M116.632 8.00855V9.07545C115.855 8.71786 115.13 8.53906 114.455 8.53906C113.675 8.53906 113.032 8.82592 112.526 9.39965C112.024 9.97338 111.773 10.7043 111.773 11.5924C111.773 12.4844 112.058 13.2173 112.626 13.791C113.195 14.3608 113.92 14.6457 114.802 14.6457C115.002 14.6457 115.257 14.6222 115.567 14.575V12.5768H114.149V11.7044H116.726V15.2175C115.937 15.469 115.191 15.5948 114.485 15.5948C113.316 15.5948 112.365 15.2313 111.632 14.5043C110.903 13.7773 110.538 12.8322 110.538 11.669C110.538 10.4783 110.903 9.51361 111.632 8.77484C112.361 8.03606 113.314 7.66667 114.491 7.66667C115.157 7.66667 115.871 7.78063 116.632 8.00855Z" fill="#24201E"/>
<path d="M118.425 15.412V7.8494H120.537C121.415 7.8494 122.025 7.9221 122.366 8.0675C123.095 8.37008 123.46 8.90451 123.46 9.6708C123.46 10.1974 123.329 10.6375 123.066 10.9912C122.803 11.3409 122.364 11.6671 121.748 11.9696L124.419 15.412H123.013L120.631 12.2644H119.584V15.412H118.425ZM119.584 11.3861H120.196C120.819 11.3861 121.313 11.2486 121.678 10.9735C122.043 10.6984 122.225 10.3271 122.225 9.85942C122.225 9.42323 122.088 9.12458 121.813 8.96346C121.539 8.80234 121.033 8.72179 120.296 8.72179H119.584V11.3861Z" fill="#24201E"/>
<path d="M124.672 15.412L127.648 7.8494H128.806L131.782 15.412H130.553L129.841 13.5199H126.395L125.671 15.412H124.672ZM126.742 12.6475H129.494L128.112 9.03419L126.742 12.6475Z" fill="#24201E"/>
<path d="M132.623 15.412V7.8494H134.9C137.409 7.8494 138.664 9.05974 138.664 11.4804C138.664 12.6004 138.391 13.5061 137.846 14.1978C137.505 14.634 137.084 14.9464 136.582 15.135C136.084 15.3197 135.419 15.412 134.588 15.412H132.623ZM133.782 14.5396H134.364C135.47 14.5396 136.256 14.3196 136.723 13.8795C137.193 13.4393 137.429 12.7006 137.429 11.6631C137.429 10.61 137.217 9.85746 136.793 9.40555C136.37 8.94971 135.664 8.72179 134.676 8.72179H133.782V14.5396Z" fill="#24201E"/>
<path d="M140.387 15.412V7.8494H145.486V8.72179H141.546V11.0147H144.886V11.8871H141.546V14.5396H145.757V15.412H140.387Z" fill="#24201E"/>
<path d="M79.7366 20.0981V21.1061C78.8857 20.776 78.1289 20.611 77.4663 20.611C76.4194 20.611 75.8959 20.9646 75.8959 21.672C75.8959 21.9588 75.9939 22.1907 76.19 22.3675C76.386 22.5404 76.7487 22.7192 77.2781 22.9039L78.0191 23.1633L78.7249 23.405C79.8189 23.7901 80.3659 24.4424 80.3659 25.3619C80.3659 26.0614 80.0855 26.6214 79.5248 27.0419C78.968 27.4584 78.2211 27.6667 77.2839 27.6667C76.6331 27.6667 75.792 27.5272 74.7608 27.2482V26.0987C75.7881 26.5624 76.6409 26.7943 77.3192 26.7943C77.8917 26.7943 78.3485 26.6823 78.6896 26.4583C79.0308 26.2304 79.2013 25.9258 79.2013 25.5447C79.2013 25.2539 79.0994 25.024 78.8955 24.855C78.6955 24.686 78.2799 24.4856 77.6486 24.2538L76.8722 23.9708C76.0998 23.684 75.5626 23.3892 75.2607 23.0867C74.9627 22.7841 74.8137 22.3813 74.8137 21.8783C74.8137 21.1985 75.0431 20.6719 75.5018 20.2986C75.9645 19.9252 76.6134 19.7386 77.4486 19.7386C78.127 19.7386 78.8896 19.8584 79.7366 20.0981Z" fill="#24201E"/>
<path d="M84.1007 27.4839V20.7937H81.2011V19.9213H88.1648V20.7937H85.2652V27.4839H84.1007Z" fill="#24201E"/>
<path d="M88.3824 27.4839L91.3585 19.9213H92.5172L95.4932 27.4839H94.264L93.5523 25.5918H90.1057L89.3823 27.4839H88.3824ZM90.4527 24.7194H93.2053L91.8231 21.1061L90.4527 24.7194Z" fill="#24201E"/>
<path d="M98.6163 27.4839V20.7937H95.7167V19.9213H102.68V20.7937H99.7809V27.4839H98.6163Z" fill="#24201E"/>
<path d="M103.845 27.4839V26.6116H105.874V20.7937H103.845V19.9213H109.068V20.7937H107.039V26.6116H109.068V27.4839H103.845Z" fill="#24201E"/>
<path d="M110.45 23.6997C110.45 22.4933 110.744 21.5325 111.332 20.8173C111.924 20.0981 112.718 19.7386 113.714 19.7386C114.71 19.7386 115.502 20.0981 116.09 20.8173C116.682 21.5325 116.979 22.4933 116.979 23.6997C116.979 24.91 116.682 25.8747 116.09 26.5939C115.502 27.3091 114.71 27.6667 113.714 27.6667C112.718 27.6667 111.924 27.3091 111.332 26.5939C110.744 25.8747 110.45 24.91 110.45 23.6997ZM111.685 23.6997C111.685 24.69 111.86 25.4543 112.209 25.9926C112.561 26.5271 113.063 26.7943 113.714 26.7943C114.365 26.7943 114.867 26.5271 115.22 25.9926C115.573 25.4543 115.749 24.69 115.749 23.6997C115.749 22.7133 115.573 21.9529 115.22 21.4185C114.867 20.8802 114.365 20.611 113.714 20.611C113.063 20.611 112.561 20.8802 112.209 21.4185C111.86 21.9529 111.685 22.7133 111.685 23.6997Z" fill="#24201E"/>
<path d="M118.214 27.4839V19.8977H119.308L122.772 25.3973H122.784V19.9213H123.731V27.4839H122.66L119.172 21.9431H119.155V27.4839H118.214Z" fill="#24201E"/>
<path d="M125.871 27.4839V19.9213H130.971V20.7937H127.03V23.0867H130.371V23.959H127.03V26.6116H131.241V27.4839H125.871Z" fill="#24201E"/>
<path d="M132.941 27.4839V19.9213H135.053C135.931 19.9213 136.541 19.994 136.882 20.1394C137.611 20.442 137.976 20.9764 137.976 21.7427C137.976 22.2693 137.844 22.7094 137.582 23.0631C137.319 23.4128 136.88 23.739 136.264 24.0416L138.934 27.4839H137.529L135.147 24.3363H134.1V27.4839H132.941ZM134.1 23.458H134.711C135.335 23.458 135.829 23.3205 136.194 23.0454C136.558 22.7703 136.741 22.399 136.741 21.9313C136.741 21.4951 136.603 21.1965 136.329 21.0354C136.054 20.8743 135.549 20.7937 134.811 20.7937H134.1V23.458Z" fill="#24201E"/>
<path d="M142.169 27.4839V24.3893L139.305 19.9213H140.64L142.834 23.4109L145.233 19.9213H146.333L143.328 24.3893V27.4839H142.169Z" fill="#24201E"/>
<path d="M19.8608 34.7801C19.1742 34.7801 18.583 34.5501 18.0871 34.0902C17.6294 33.6303 17.267 33.0746 17 32.4231C16.7712 31.7332 16.6567 31.0817 16.6567 30.4685C16.6567 29.8553 16.733 29.2612 16.8856 28.6864C17.0382 28.0732 17.248 27.4791 17.515 26.9043C18.0108 25.7928 18.6021 24.5664 19.2887 23.225C20.0134 21.8453 20.7762 20.4465 21.5773 19.0284C22.4164 17.5721 23.2556 16.2499 24.0947 15.0618C23.4463 15.3301 22.6834 15.6367 21.8061 15.9816C20.967 16.2882 20.4139 16.4415 20.1469 16.4415C19.9943 16.4032 19.8799 16.2882 19.8036 16.0966C19.7654 15.9049 19.7464 15.7133 19.7464 15.5217C19.7464 14.7169 20.1278 14.1803 20.8907 13.912C22.0731 13.5288 23.6561 13.1839 25.6396 12.8772C27.089 10.961 28.6529 9.04474 30.3312 7.12848C32.0477 5.21222 33.7832 3.69838 35.5378 2.58695C35.8811 2.357 36.2625 2.47197 36.6821 2.93188C37.1017 3.35345 37.3305 3.79419 37.3687 4.25409C37.3687 4.67567 37.2161 4.96311 36.911 5.11641C35.3852 6.07454 33.9739 7.1668 32.677 8.39321C31.3802 9.58129 30.0451 10.9418 28.672 12.4748C29.4348 12.3599 30.1023 12.2832 30.6745 12.2449C31.2466 12.2066 31.609 12.1874 31.7616 12.1874C31.876 12.1874 32.0667 12.1874 32.3337 12.1874C32.6007 12.1491 32.8868 12.1299 33.192 12.1299C33.6497 12.1299 34.0693 12.1682 34.4507 12.2449C34.8703 12.3215 35.0801 12.4557 35.0801 12.6473C35.0801 12.8006 34.9084 12.9347 34.5651 13.0497C34.26 13.1264 33.9167 13.1839 33.5353 13.2222C33.1538 13.2222 32.8677 13.2413 32.677 13.2797C31.5327 13.433 30.5029 13.5863 29.5874 13.7396C28.7101 13.8929 27.89 14.0845 27.1271 14.3144C26.2498 15.3875 25.5633 16.2882 25.0674 17.0164C24.6097 17.7445 24.2092 18.4152 23.8659 19.0284C23.5607 19.6033 23.1793 20.2548 22.7216 20.983C21.7298 22.8993 20.8716 24.8539 20.1469 26.8468C19.4603 28.8397 19.117 30.4493 19.117 31.6757C19.117 31.8674 19.1361 32.0207 19.1742 32.1356C19.2124 32.2506 19.3268 32.3081 19.5175 32.3081C19.7464 32.3081 19.9562 32.2506 20.1469 32.1356C20.3757 31.9823 20.5665 31.829 20.719 31.6757C21.253 31.2542 21.7489 30.7751 22.2066 30.2385C22.7025 29.6637 23.1793 29.1271 23.637 28.6289C24.4762 27.7091 25.3344 26.8084 26.2117 25.927C27.089 25.0455 27.9472 24.164 28.7864 23.2825C28.8627 23.2059 28.939 23.1484 29.0153 23.1101C29.0915 23.0334 29.1678 22.9951 29.2441 22.9951C29.5111 22.9951 29.6446 23.1484 29.6446 23.455C29.6446 23.57 29.5683 23.7424 29.4158 23.9724C28.958 24.5856 28.4622 25.1988 27.9282 25.812C27.3942 26.3869 26.8792 26.9809 26.3834 27.5941C25.3916 28.7822 24.3999 29.9511 23.4082 31.1009C22.4546 32.2506 21.501 33.4387 20.5474 34.6651C20.433 34.7034 20.3185 34.7226 20.2041 34.7226C20.0897 34.7609 19.9752 34.7801 19.8608 34.7801Z" fill="#24201E"/>
<path d="M30.055 34.0902C28.7962 34.0902 27.7854 33.6686 27.0226 32.8255C26.2978 31.9823 25.9355 30.9092 25.9355 29.6062C25.9355 28.3798 26.3169 27.0384 27.0798 25.582C27.8808 24.1257 28.8916 22.7076 30.1122 21.3279C31.3709 19.9482 32.6678 18.741 34.0028 17.7062C35.3378 16.6714 36.5394 15.9624 37.6074 15.5792C38.1032 15.3875 38.561 15.2917 38.9805 15.2917C39.4764 15.2917 39.8006 15.4067 39.9532 15.6367C40.1058 15.8666 40.2202 16.1157 40.2965 16.384C40.4109 16.6523 40.5826 16.8631 40.8114 17.0164C41.231 17.2463 41.4408 17.6487 41.4408 18.2236C41.4408 18.6452 41.3264 19.1626 41.0975 19.7758C40.9068 20.3507 40.6207 20.868 40.2393 21.3279C39.8578 21.7495 39.4001 21.9603 38.8661 21.9603C38.3702 21.9603 38.1223 21.7495 38.1223 21.3279C38.1223 21.0597 38.2558 20.7722 38.5228 20.4656C38.7898 20.159 39.0568 19.8333 39.3238 19.4883C39.5908 19.1051 39.7243 18.741 39.7243 18.3961C39.7243 18.0511 39.5527 17.8787 39.2094 17.8787C38.561 17.8787 37.76 18.2236 36.8064 18.9135C35.8528 19.565 34.8801 20.4273 33.8884 21.5004C32.8967 22.5735 31.9621 23.7233 31.0848 24.9497C30.2075 26.1378 29.5019 27.2683 28.9679 28.3414C28.4339 29.4146 28.1669 30.296 28.1669 30.9859C28.1669 31.4841 28.2813 31.9057 28.5101 32.2506C28.7772 32.5572 29.1586 32.7105 29.6545 32.7105C30.4555 32.7105 31.3518 32.4806 32.3436 32.0207C33.3353 31.5608 34.2698 31.005 35.1471 30.3535C36.0626 29.702 36.8064 29.1271 37.3785 28.6289C38.4465 27.6708 39.4764 26.7126 40.4681 25.7545C41.498 24.758 42.5088 23.7616 43.5006 22.7651C43.615 22.6502 43.7485 22.5927 43.9011 22.5927C44.2444 22.5927 44.416 22.746 44.416 23.0526C44.416 23.2059 44.1109 23.6275 43.5006 24.3173C42.8903 24.9688 42.1655 25.7162 41.3264 26.5593C40.4872 27.4025 39.7053 28.169 38.9805 28.8588C38.2558 29.5487 37.779 29.9894 37.5502 30.1811C36.9399 30.7176 36.1961 31.2925 35.3188 31.9057C34.4796 32.5189 33.6023 33.0363 32.6869 33.4579C31.7714 33.8794 30.8941 34.0902 30.055 34.0902Z" fill="#24201E"/>
<path d="M51.0543 33.9178C50.4822 33.9178 49.8147 33.7261 49.0518 33.3429C48.2889 32.9596 47.9075 32.4422 47.9075 31.7907C47.9075 31.2158 48.1173 30.4877 48.5368 29.6062C48.9564 28.7247 49.4714 27.7857 50.0817 26.7893C50.692 25.7928 51.3213 24.8347 51.9698 23.9149C52.6182 22.9568 53.1713 22.1519 53.629 21.5004C54.1249 20.8106 54.43 20.3507 54.5444 20.1207C55.0785 19.3925 55.4027 18.9326 55.5171 18.741C55.6315 18.5494 55.7078 18.3961 55.746 18.2811C55.4408 18.511 54.964 18.8751 54.3156 19.3734C53.6671 19.8333 53.0187 20.3123 52.3703 20.8106C51.7218 21.3088 51.245 21.692 50.9399 21.9603C48.8038 23.8382 47.0111 25.6395 45.5616 27.3642C44.1503 29.0505 42.8344 30.8517 41.6138 32.768C41.5756 32.8063 41.4803 32.8447 41.3277 32.883C41.1751 32.883 41.0607 32.883 40.9844 32.883C40.7556 32.883 40.4123 32.8255 39.9545 32.7105C39.535 32.5955 39.3633 32.3464 39.4396 31.9632C39.6685 31.3883 39.9736 30.7751 40.3551 30.1236C40.7365 29.472 41.2705 28.5906 41.9571 27.4791C42.6437 26.3294 43.54 24.7197 44.6462 22.6502C44.9895 21.9986 45.5616 20.9255 46.3627 19.4309C47.2018 17.9362 48.2126 16.2307 49.3951 14.3144C50.6157 12.3982 51.9698 10.5011 53.4574 8.62316C54.9831 6.7069 56.6233 5.00143 58.3779 3.50675C60.1325 2.01207 61.9634 0.938968 63.8705 0.287442C64.3664 0.0958139 64.8051 0 65.1865 0C65.9112 0 66.4071 0.249114 66.6741 0.747341C66.9792 1.20724 67.3797 1.5905 67.8756 1.8971C68.1808 2.08872 68.3333 2.39532 68.3333 2.8169C68.3333 3.4301 67.8184 4.27326 66.7885 5.34636C65.7968 6.38114 64.519 7.53089 62.9551 8.79562C61.3912 10.022 59.751 11.2484 58.0346 12.4748C56.3181 13.7012 54.697 14.8318 53.1713 15.8666C51.6837 16.9014 50.5394 17.7062 49.7384 18.2811C49.5858 18.5877 49.2806 19.0859 48.8229 19.7758C48.4033 20.4273 47.9456 21.1363 47.4498 21.9028C46.9539 22.6693 46.4962 23.3783 46.0766 24.0299C45.657 24.6814 45.39 25.1413 45.2756 25.4096C46.3436 24.4131 47.4688 23.3592 48.6513 22.2477C49.8719 21.1363 51.0543 20.0632 52.1986 19.0284C53.3811 17.9937 54.4109 17.1122 55.2882 16.384C55.479 16.2307 55.7078 16.1349 55.9748 16.0966C56.28 16.0582 56.5279 16.0391 56.7186 16.0391C57.2526 16.0391 57.882 16.269 58.6067 16.7289C59.3315 17.1888 59.6938 17.7445 59.6938 18.3961C59.6938 18.8176 59.465 19.2392 59.0072 19.6608C57.8629 20.6956 56.6996 21.9028 55.5171 23.2825C54.3347 24.6239 53.2666 26.0419 52.3131 27.5366C52.046 27.9965 51.6646 28.6672 51.1687 29.5487C50.711 30.4302 50.4822 31.1392 50.4822 31.6757C50.4822 32.059 50.5966 32.2506 50.8255 32.2506C51.2832 32.2506 51.9125 32.0015 52.7136 31.5033C53.5527 31.005 54.4491 30.3727 55.4027 29.6062C56.3944 28.8013 57.3671 27.9774 58.3207 27.1342C59.3124 26.291 60.1897 25.5054 60.9526 24.7772C61.7154 24.049 62.2685 23.4933 62.6118 23.1101C62.8407 22.8801 63.0314 22.7651 63.184 22.7651C63.4128 22.7651 63.5273 22.8801 63.5273 23.1101C63.5273 23.225 63.451 23.3975 63.2984 23.6275C62.8025 24.279 62.0778 25.103 61.1242 26.0994C60.1706 27.0576 59.1217 28.054 57.9774 29.0888C56.8331 30.0852 55.7269 31.005 54.6589 31.8482C53.629 32.653 52.7708 33.2662 52.0842 33.6878C51.8172 33.8411 51.4739 33.9178 51.0543 33.9178ZM50.9399 16.0391C51.245 15.8091 51.76 15.445 52.4847 14.9468C53.2476 14.4103 54.0867 13.8162 55.0022 13.1647C55.9558 12.4748 56.8903 11.8041 57.8057 11.1526C58.7212 10.4628 59.484 9.84956 60.0943 9.31301C61.3149 8.23991 62.3257 7.35843 63.1267 6.66858C63.9659 5.97872 64.6906 5.1739 65.3009 4.25409C65.4535 4.06247 65.5489 3.89 65.587 3.7367C65.6251 3.5834 65.6442 3.44927 65.6442 3.33429C65.6442 3.10434 65.5298 2.93188 65.3009 2.8169C65.1102 2.70192 64.8623 2.64444 64.5571 2.64444C63.985 2.64444 63.2412 2.95104 62.3257 3.56424C61.4103 4.17744 60.4186 5.00143 59.3505 6.03621C58.2825 7.03267 57.2145 8.12493 56.1465 9.31301C55.0785 10.5011 54.0867 11.6892 53.1713 12.8772C52.2558 14.027 51.512 15.0809 50.9399 16.0391Z" fill="#24201E"/>
<path d="M4.63704 34.9992C1.58582 35.0398 0.040341 33.5528 0.000594706 30.5381C-0.0148996 29.3629 0.27237 28.0048 0.862402 26.4638C1.50262 24.8711 2.34624 23.2756 3.39328 21.6774C4.44033 20.0792 5.61619 18.6071 6.92086 17.261C8.22487 15.8638 9.558 14.7473 10.9203 13.9115C12.3327 13.024 13.6492 12.572 14.8697 12.5558C15.2765 12.5504 15.5575 12.6489 15.7128 12.8512C15.9182 13.0018 16.0745 13.2808 16.1816 13.6882C16.286 13.8912 16.3653 14.1201 16.4195 14.3749C16.4738 14.6297 16.5534 14.8842 16.6585 15.1383C16.8666 15.4933 17.0493 15.8486 17.2066 16.2042C17.3639 16.5599 17.4452 16.9421 17.4506 17.3508C17.4573 17.8618 17.3363 18.3233 17.0874 18.7355C16.8378 19.0966 16.5371 19.4327 16.1851 19.744C15.6827 20.2107 14.9276 20.8084 13.92 21.5373C12.9117 22.2151 11.802 22.9198 10.5909 23.6514C9.43005 24.3312 8.29359 24.934 7.18155 25.4599C6.12036 25.985 5.25989 26.3031 4.60014 26.4141C4.15189 27.1355 3.68057 28.0361 3.18618 29.1159C2.74197 30.1439 2.52559 31.0922 2.53705 31.9609C2.54311 32.4207 2.65021 32.8281 2.85834 33.1831C3.11732 33.5374 3.50108 33.7111 4.00961 33.7044C4.82327 33.6935 5.88614 33.2961 7.19823 32.5121C8.5605 31.6763 9.9716 30.6865 11.4315 29.5428C12.8908 28.3479 14.2236 27.2059 15.4299 26.1166C16.6864 24.9756 17.6158 24.0945 18.2179 23.4732L20.6246 20.8348C20.9256 20.5242 21.2542 20.3665 21.6101 20.3618C21.9153 20.3577 22.0695 20.4834 22.0729 20.7389C22.0769 21.0455 21.6531 21.6899 20.8014 22.6722C19.949 23.6035 18.9203 24.6648 17.7153 25.8562C16.5605 26.9959 15.481 28.0579 14.4767 29.0423C13.4717 29.9755 12.8184 30.5719 12.5166 30.8315C11.4608 31.7654 10.2525 32.7014 8.89156 33.6394C7.52996 34.5263 6.11179 34.9796 4.63704 34.9992ZM5.87063 24.4041C6.37513 24.0908 7.13153 23.5952 8.13985 22.9174C9.19901 22.239 10.2826 21.4835 11.3906 20.6511C12.4986 19.8187 13.4286 18.9886 14.1806 18.1609C14.9835 17.3326 15.3809 16.6118 15.3728 15.9987C15.3708 15.8454 15.3437 15.718 15.2915 15.6165C15.24 15.566 15.1379 15.5419 14.9854 15.5439C14.3243 15.5527 13.5408 15.9208 12.6348 16.6484C11.7289 17.3759 10.825 18.2567 9.92308 19.2908C9.02052 20.2738 8.19423 21.2558 7.44423 22.2368C6.7444 23.166 6.21987 23.8884 5.87063 24.4041Z" fill="#24201E"/>
</svg>
